<?xml version="1.0" encoding="utf-8"?>
<!-- Generator: Adobe Illustrator 16.0.0, SVG Export Plug-In . SVG Version: 6.00 Build 0)  -->
<!DOCTYPE svg PUBLIC "-//W3C//DTD SVG 1.1//EN" "http://www.w3.org/Graphics/SVG/1.1/DTD/svg11.dtd">
<svg version="1.1" xmlns="http://www.w3.org/2000/svg" xmlns:xlink="http://www.w3.org/1999/xlink" x="0px" y="0px" width="888px"
	 height="822px" viewBox="0 0 888 822" enable-background="new 0 0 888 822" xml:space="preserve">
<g id="background" display="none">
	
		<image display="inline" overflow="visible" width="1118" height="908" xlink:href="4BF5AA61.png"  transform="matrix(1 0 0 1 -121.4023 -54.1953)">
	</image>
	<line display="inline" x1="459.069" y1="290.331" x2="428.255" y2="314.52"/>
	<path display="inline" fill="none" stroke="#40B549" d="M557.428,617.519"/>
</g>
<g id="bird">
	<g id="XMLID_1_">
		<g>
			<path d="M266.093,516.31c-0.01,1.351,2.32,5.591,3.65,6.96c4.92,5.061,28.84-2.39,57.21-10.649c0.11,3.229,0.23,4.66,0.35,5.68
				c0.06,0.53,0.24,1.021,0.38,1.15c0.13,0.12,0.77,0.2,1.32,0.17c1.64-0.09,6.21-0.45,23.33-2.45
				c16.08-1.87,41.17-12.34,83.17-25.42c0,0,127.271,10.25,149.8-95.75c0,0-38.54,51.16-150.97,93
				c-67,24.93-78.54,25.99-78.54,25.99l-24.65,2.109c0,0-0.93,0.131-1.18-0.1c-0.25-0.22-0.29-1.13-0.29-1.13l-0.34-4.75
				c0,0,41.94-23.12,45.08-27.95c-6.97-1-34.14,32.39-100.57,39.91c-0.32,0.04-0.63,0.05-0.94-0.05c-0.25-0.08-0.41-0.2-0.6-0.37
				c-5.38-5.04-4.64-6.08-4.64-6.08s30.5-18.75,40.5-27.75c-18.91,11.17-30.86,19.26-37.33,23.67
				C268.223,514.27,265.903,515.97,266.093,516.31z M333.313,444.56c0.39-0.24,13.34-8.15,66.99-17.99c54.5-10,143.5-52.75,184-88.5
				c-7.5-24.5-16.5-49-71-32.5C493.303,310.57,423.803,337.57,333.313,444.56z M131.993,694.69
				c-1.25,1.52-81.02,98.659-84.33,101.31c-3.33,2.67-13.66,14.33-20.33,8.67c-6.67-5.67,0.33-11.34,11-23.67s54.33-68,68-82
				s83-94.33,98-110s60.63-66.8,60.63-66.8c-1.9-0.03-3.97-0.05-5.13-0.12c-33-2-83,2.59-95.17-8.75
				c51.67-9.16,92.67-33.08,116.17-49.08c170.17-195.88,225-195.17,225-195.17c7.67-2.41,28.75-33.33,43-49.08
				c46-39.5,63.64-32.81,84.17-28c18.58,8.25,20.83,11.33,43.33,41.83c32,14,43.67,43.5,43.67,43.5c-28-14-58-11.33-61-10.33
				s-5,1-32.5,34.5c-12,94-17.17,97.08-36.17,124.58c-31.95,39.96-63.53,64.66-92.4,79.83c13.32,28.02,8.771,35.97,4.44,50.3
				c2.34,18,16.29,48.12,23.96,66.46c17.67,3,23.67-4.67,31.67-10c0,11.66-11.67,14.66-11.67,15.33s7.67,3.33,13,8
				c2.33,4.67-2,3.67-2,3.67c-9.67-8.67-16.33-8.67-25.33-10.34c2,3.34,3.33,13.67,0,13.67c-2.34-3.67-4.67-6.67-19.67-22.33
				c-16-57.34-36.67-76-42.67-80.67c-2.33,0.67-8.43-19-8.43-19c-8.75,2.63-17.09,4.47-24.9,5.74c1.18,15.08,0.33,20.26-3,29.26
				c4.67,14.33,18,33,25.47,49.33c10.8,7.34,28.62,5.36,32.96,3.03c1,6.33-2.43,6.64-16.76,7.97c-2.34,5.34,12,12.67,11,15.34
				c-2,2.33-6.34,0-19.34-8c-8.66-10.67-16-9-18-9s-1.21,0.83-14.87,14.5c-0.67-12,6.87-20.5,13.21-21.84
				c1.66-2.66-13-28.33-22.23-45c-5.22-9.33-16.44-9.66-16.44-9.66c-0.27-0.27-0.88-1.39-1.68-3c-3.16-6.37-9.33-20.479-9.33-20.479
				c-1.2-0.03-2.36-0.07-3.49-0.11c-11.31-0.44-25.01-1.21-39.5-2.09c-3.67,4.66-35.33,34.34-41.67,40.68
				c-6.33,6.33-39.66,42.33-75.33,81c-35.67,38.66-51,47-54,45.33c-1-0.33,70.33-79.67,74-86.67c-4.67,5.67-39,42-76.67,86
				c-52.33,48.34-54,42.34-57.66,41c0-0.66,91.33-106.66,92-112.66c-4.67,4.33-62,75.66-94.67,112.33c-34,36-50.33,41-50.33,39
				S130.543,701.14,131.993,694.69z M642.213,223.88c0,0-7.26-7.13-9.38-8.26c-2.12-1.12-7.12,0-7.12,0
				S627.333,227.62,642.213,223.88z"/>
		</g>
		<g>
		</g>
	</g>
</g>
<g id="circle">
	<g id="XMLID_2_">
		<g>
			<path d="M499.39,630.8c-72.64,0-139.3-25.069-191.419-66.84l5.16-6.13c51.39,40.91,117.21,65.47,188.97,65.47
				c2.7,0,5.391-0.03,8.07-0.1c0.4-0.01,4.69-0.55,5.08-0.58l6.75,7C515.71,630,505.78,630.8,499.39,630.8z"/>
			<path d="M619.81,63.71c0,0,1.79,1.51,0.29,4.26s-3.77,1.98-3.77,1.98C581.16,55.8,542.57,47.98,502.1,47.98
				c-164.31,0-297.5,128.79-297.5,287.66c0,58.21,17.88,112.38,48.62,157.66l-6.53,4.12c-31.35-46.6-49.59-102.4-49.59-162.36
				c0-163.34,135.34-295.75,302.29-295.75c42.32,0,82.61,8.51,119.181,23.87C618.98,63.36,619.4,63.53,619.81,63.71z"/>
		</g>
		<g>
		</g>
	</g>
</g>
<g id="key">
	<path fill="none" d="M748.75,227.75"/>
	<g id="XMLID_3_">
		<g>
			<path d="M753.33,183.67c13,7.66,12,20.66,4.46,29.33c-4.66,3.85-10.54,5.13-14.79,4.25c-3.84-0.79-6.32-3.5-7.62-4.63
				c-2.88-2.48-0.13-15.34,7.87-11.34c6.67,6.67-3.62,11.59,0.87,11.97c1.26,0.1,3.63,0.9,5.5,0.25c5.16-1.8,10.87-7.85,6.71-19.83
				c-9.33-15.34-26.33-2-26.33-2l-10,18.66c0,0,0.88,0.34,5.88,3.67c3.62,6.5-6.25,3.7-3.63,4.25l-5.92-3.13l-4.33,8.55
				c0,0,0,0,4.33,4.33c2.42,2.14,2.42,3.25,1.42,4.38c-1.16,1.3-3.75,0.62-3.75,0.62l-6.33-3c0,0-43.67,82.33-44.67,84.52
				s16,9.81,16,9.81s-1.67,6.34-4,8.34s-2.67,0-2.67,0c-1.33-10-5.66-4-6.66-2.34c-1,1.67-4.67-1.33-7-0.33c-4,6-0.34,16-1.34,19.19
				c0,1.19-5-0.86-13-4.52c-5,9.33-6.66,1.33-6.66,1.33l64.66-118l0.8-1.36c0,0-0.88-0.26-4.13-3.52c-3.25-3.24,2-3.87,2-3.87
				l4.5,1.87l5-8.5c0,0-0.88-0.87-3.25-2.74c-2.37-1.88,0.94-4.38,1.69-4.26c0.75,0.13,3.68,1,3.68,1s9.13-14.5,9.38-15.5
				s0.5-6-0.62-7.87c-8.38-23.63-19.38-14.5-24.88-7.13c-4.75,8.76,6.38,16.13,9.75,15.63c-7.13-8.13,4.75-11.87,6.75-9.87
				s4.25,6-1.75,12c-12.75,5.12-20.19-8.85-19.59-15.82c9.37-20.38,21.34-13.06,25.84-11.68c4.88-9,11.2-10.11,11.2-10.11
				s0.18-0.29,12.68-0.65c-2.38-6.87,7.74-13.62,13-8.24c5.24,5.37,2,10.37-2.76,14.74C757.25,169.25,753.33,183.67,753.33,183.67z
				 M752.75,156.25c1.75-2.37,1.25-5.75-1.63-7.5c0,0-4.12-1.25-6.24,1.75c-2.13,3-1.5,4.5,1,6.62
				C748.38,159.25,751,158.62,752.75,156.25z M749.38,182.62c0,0,6.24-9.24-2.5-20l-12.76,20H749.38z M740.25,209.75
				c2-0.37,3.43-2.3,3.34-3.21c0,0-0.649-3.9-4.34-3.29c0,0-2,0.75-2,3.25S738.25,210.12,740.25,209.75z M727.82,180.46l12.43-20.71
				c-4.52-1.46-8.31-1.24-11.32-0.15c-0.02,0.01-0.029,0.01-0.04,0.01c-6.85,1.46-9.47,6-8.89,10.19c0.78,5.54,7.39,10.35,7.8,10.65
				C727.81,180.46,727.82,180.46,727.82,180.46z M710,190.5c2.38-0.25,2.5-1.62,2.38-3.88c-0.13-2.24-2.38-2.5-2.38-2.5
				s-3.88,0.13-3.75,3.13S707.62,190.75,710,190.5z"/>
			<path d="M728.93,159.6c3.011-1.09,6.801-1.31,11.32,0.15C735.64,158.94,731.89,158.98,728.93,159.6z"/>
			<path d="M720.21,169.8c2.1,4.86,7.271,10.31,7.59,10.65c-0.41-0.3-7.02-5.11-7.8-10.65c-0.58-4.19,2.04-8.73,8.89-10.19
				C723.29,161.67,720.34,166.76,720.21,169.8z"/>
		</g>
		<g>
		</g>
	</g>
</g>
<g id="type" display="none">
	<g id="XMLID_4_" display="inline">
		<g>
			<path d="M250.18,318.09c-0.36,3.09-2.91,2.31-2.91,2.31l-29.85-5.25c0,0-1.21-0.98-0.68-3.74c0.3-1.55,2.27-1.49,2.27-1.49
				l27.99,5.29C247,315.21,250.53,314.99,250.18,318.09z"/>
			<path d="M330.92,151.73c4.27,2.08,5.7,6.27,3.58,13.89c-2.12,7.63-15.44,10.94-15.69,10.94s-3.75,0-4.07-2.31
				c-0.22-1.63,1.7-3.37,2.45-3.69c16.37-1.44,13.27-12.89,12.69-13.52c-2.13-2.35-6.13-1.17-17.07,4.65
				c-10.93,5.81-11.87-9.81-11.87-9.81c2.56-9.26,13.18-11.88,13.18-11.88c7.69-0.88,5,3.5,3.76,3.94
				c-5.63-0.38-10.13,4.75-11.26,7.18c-1.12,2.44-0.84,7.67,3.44,7.19c4.44-0.5,10.02-4.68,10.02-4.68S327,150.12,330.92,151.73z"/>
			<path d="M284.19,177.14c17.94,0.31,17.12,16.98,17.12,18.05c0.01,2.37-2.43,17.21-17.13,16.85
				c-16.99-0.42-17.99-17.73-17.99-17.73C266.14,193.95,266.26,176.82,284.19,177.14z M297,195.25c0.19-9.81-6.19-13.63-13.25-13.37
				c0,0-13.19-0.56-13.13,12.12c0.07,12.69,10.63,13.31,13.76,13.38C287.5,207.44,296.81,205.06,297,195.25z"/>
			<path d="M271.69,246.94c0,0,0.87,1.62,0.26,2.98c-0.62,1.37-2.37,1.16-2.37,1.16l-27.27-14.39c0,0-1.12-2,0-4.13
				c1.13-2.12,7.38-14.18,7.38-14.18s2.03-1.72,3.5-0.89c1.56,0.89,0.19,3.63,0.19,3.63l-6,9.88c0,0-1.26,1.62-1.19,2.38
				c0.06,0.74,2,1.68,2,1.68l4.75,2.5c0,0,1.12,0.68,2.18,0.61c1.06-0.06,1.88-2.11,1.88-2.11l4.94-10.18c0,0,1.22-1.5,3-0.69
				c1.24,0.57,1.04,2.7,1.04,2.7l-5.04,10.3c0,0-0.88,1.75-0.13,2.87c0.75,1.13,2.05,1.41,2.05,1.41L271.69,246.94z"/>
			<path d="M260.92,269.92c0,0,2.75,1,2.16,2.91c-0.58,1.92-3.16,2.34-3.16,2.34l-22.25,6.66c0,0-2.46,0.27-2.46,1.86
				c0,1.58,3.7,2.36,3.7,2.36l15.84,4.95c0,0,2.08,1.25,1,2.83c-1.08,1.59-3.67,1-3.67,1c-0.41-0.08-26.33-8.83-26.33-8.83
				s-3.08-1.08-3.08-2.83s2.41-2.75,2.41-2.75l23-6.34c0,0,2.09-0.08,2-1.58c-0.08-1.5-2.41-2.08-2.41-2.08l-15.84-5.75
				c0,0-2.08-2.09-1.25-3.5c0.96-1.63,4.1-1.15,4.1-1.15L260.92,269.92z"/>
		</g>
		<g>
		</g>
	</g>
	<g id="XMLID_5_" display="inline">
		<g>
			<path d="M332.92,129.67c-3.34-4.09,0.58-7.17,0.58-7.17l11.17-8c0,0,3.16-2.17,5.08-0.42s-1,4.25-1,4.25s-6.17,4.34-8.75,6
				c-2.58,1.67-1.58,4.09-1.58,4.09c0,0.02,0.01,1.01,2.2,3.52c1.8,2.06,4.96-0.19,4.96-0.19l6.17-4.42c0,0,3.75-1.5,4.92-0.33
				c1.16,1.17-0.67,3.67-0.67,3.67s-4.83,3.75-8.17,5.41c-3.33,1.67-1.47,4.64-1.47,4.64s1.6,1.61,3.77,4.49
				c1.79,2.37,4.74-0.02,4.74-0.02l7.13-5.31c0,0,3.5-3.13,5.33-0.8c1.84,2.34-0.75,3.67-0.75,3.67s-13.19,10.02-15.02,10.19
				s-2.89-1.19-2.89-1.19S336.25,133.75,332.92,129.67z"/>
		</g>
		<g>
		</g>
	</g>
	<g id="XMLID_6_" display="inline">
		<g>
			<path d="M406.14,113.03c1.84,1.42,0.53,3.14,0.19,3.55c-0.33,0.42-4.17,7.69-12.83,8.92c-8.83,1.25-10.67,0-10.67,0
				s-11.66-3.25-11.25-17.08c0.42-13.84,10.67-17.84,16-18.25c5.34-0.42,8.57,0.91,8.65,2.82c0.08,1.92-1.81,2.09-1.81,2.09
				s-15.17-3.5-17.67,8.59c-1.17,10.41,0.25,14.66,7.33,17.25c9,0.58,14.59-0.42,17.92-6.92
				C402.58,113.08,404.31,111.61,406.14,113.03z"/>
		</g>
		<g>
		</g>
	</g>
	<path display="inline" d="M351.167,134.417"/>
	<g id="XMLID_7_" display="inline">
		<g>
			<path d="M528.45,88.8l1.38-22.63c0,0,0.75-1.92,2.17-1.75c1.42,0.16,2.42,1.16,2.42,2.75c-0.5,12.08-4.84,28.56,7.83,28.73
				c12.66,0.17,10.58-24.15,10.58-25.82c0-1.66,2.5-3.25,3.17-3.16c0.67,0.08,2.33,0.33,2.5,2.08c-1,21.17-0.95,18.47-1.58,21.17
				c-1.25,3-2.17,10.25-15.25,10.25C529.92,100.42,528.45,88.8,528.45,88.8z"/>
			<path d="M598.72,78.25c2.721,7.5-0.97,9.75-1.64,10.58c-0.66,0.84-1.08,1.34-0.33,3.34c7.33,15.83-8.17,16.5-8.17,16.5
				s-7.41-1.75-10.41-2.67s-2.67-7.32-2.67-7.32l7.25-25.43C593.17,71.67,598.17,76.75,598.72,78.25z M593.25,86.17
				c0.5-1,1.75-2.75,1.5-5.75c-0.17-0.75-7.05-3.23-7.67-2c0,0-3.16,5.83-2,7.75C586.83,87.25,592.75,87.17,593.25,86.17z
				 M592.17,102.42c0.75-1.59,3.41-4.25,0-8.42c-1.75-1.67-5.84-2.75-9.09-2.08c0,0-3.5,6.66-2,9.91
				C581.92,103.17,590.25,104.75,592.17,102.42z"/>
			<path d="M509.52,93.3c0,0,2.561,0.45,2.48,2.28c-0.08,1.84-2.17,2.75-2.17,2.75s-12.41,0.42-17.08,0.34
				c-4.67-0.09-3.92-2.67-3.92-2.67l-0.33-29.75c0,0,1.08-2.5,2.67-2.5c1.58,0,2.16,2.25,2.16,2.25s0.84,21.92,0.84,24.5
				s0.58,2.92,0.58,2.92L509.52,93.3z"/>
			<path d="M470.63,92.98c0.83,0.83,1.29,2.4,0.7,3.32c-1.91,4.83-9.09,6.64-14.91,7.03c-18.39,1.22-18.25-20.14-18-17.25
				c0-23.5,24.33-18.25,24.33-18.25s4,0.67,4.08,3.5c0.09,2.84-3.5,2.75-3.5,2.75s-1.75-1.41-7.08-1.41s-12.92,3.83-12.83,12.7
				c0.08,8.87,8.5,12.8,12.41,12.8c3.92,0,9.42-3.25,10.09-4.17C466.58,93.08,469.8,92.14,470.63,92.98z"/>
		</g>
		<g>
		</g>
	</g>
</g>
<g id="Layer_6" display="none">
	<g display="inline">
		<ellipse fill="none" cx="535.258" cy="371.38" rx="303.258" ry="275.881"/>
		<path d="M237.615,307.513c0.678,0.203,1.177,0.626,1.498,1.268c0.321,0.643,0.393,1.324,0.216,2.043
			c-0.194,0.789-0.578,1.375-1.153,1.761c-0.574,0.386-1.204,0.494-1.89,0.325l-27.96-6.887c-0.685-0.168-1.191-0.566-1.517-1.191
			c-0.325-0.625-0.387-1.349-0.185-2.171c0.169-0.685,0.545-1.237,1.127-1.658c0.583-0.419,1.218-0.545,1.903-0.376L237.615,307.513
			z"/>
		<path d="M223.791,252.342c0.263-0.655,0.678-1.106,1.245-1.354c0.566-0.248,1.148-0.252,1.744-0.013l26.899,10.807
			c0.655,0.263,1.104,0.72,1.345,1.367c0.241,0.649,0.217,1.333-0.072,2.053c-0.132,0.328-0.333,0.656-0.603,0.984
			c-0.271,0.329-0.549,0.549-0.837,0.662l-31.926,10.619l-0.127-1.363l23.012,9.245c0.566,0.228,0.964,0.635,1.196,1.222
			c0.231,0.587,0.215,1.208-0.048,1.863c-0.276,0.688-0.698,1.156-1.265,1.403c-0.566,0.249-1.132,0.258-1.699,0.031l-26.944-10.825
			c-0.685-0.275-1.137-0.742-1.357-1.401c-0.22-0.659-0.191-1.332,0.085-2.02c0.145-0.36,0.366-0.717,0.665-1.073
			c0.298-0.355,0.621-0.578,0.968-0.667l31.238-10.325l0.329,0.988l-22.654-9.102c-0.596-0.239-1.009-0.652-1.24-1.24
			C223.512,253.619,223.528,252.998,223.791,252.342z"/>
		<path d="M265.793,244.468c-0.441,0.723-0.993,1.183-1.657,1.376c-0.664,0.195-1.297,0.108-1.9-0.259l-24.589-14.986
			c-0.603-0.368-0.965-0.898-1.087-1.593c-0.122-0.694,0.01-1.358,0.396-1.991l9.311-15.277c0.404-0.663,0.931-1.096,1.581-1.299
			c0.65-0.202,1.263-0.129,1.839,0.222c0.521,0.318,0.84,0.813,0.957,1.482c0.118,0.671-0.026,1.338-0.43,2.001l-8.044,13.198
			l-0.218-0.567l9.169,5.588l-0.659-0.029l6.777-11.119c0.404-0.663,0.931-1.096,1.581-1.299c0.65-0.202,1.263-0.129,1.839,0.222
			c0.521,0.318,0.84,0.813,0.958,1.482c0.118,0.671-0.026,1.338-0.43,2.001l-6.832,11.209l-0.109-0.562l10.855,6.616
			c0.604,0.368,0.966,0.899,1.088,1.593C266.311,243.171,266.179,243.835,265.793,244.468z"/>
		<path d="M294.726,177.421c1.854,1.587,3.292,3.4,4.315,5.437c1.023,2.038,1.611,4.178,1.761,6.42
			c0.15,2.243-0.15,4.482-0.903,6.718c-0.753,2.236-1.978,4.346-3.676,6.33c-1.676,1.957-3.561,3.479-5.654,4.567
			c-2.094,1.088-4.26,1.73-6.499,1.926c-2.239,0.197-4.438-0.06-6.598-0.771c-2.16-0.71-4.166-1.859-6.019-3.446
			c-1.853-1.586-3.298-3.392-4.333-5.417c-1.035-2.023-1.628-4.157-1.778-6.4c-0.15-2.242,0.15-4.481,0.903-6.718
			c0.752-2.236,1.966-4.333,3.642-6.29c1.698-1.983,3.594-3.519,5.688-4.607c2.094-1.087,4.26-1.729,6.499-1.926
			c2.239-0.196,4.445,0.054,6.615,0.751C290.86,174.693,292.873,175.835,294.726,177.421z M291.007,181.764
			c-1.804-1.545-3.765-2.537-5.88-2.979c-2.116-0.441-4.185-0.319-6.208,0.364c-2.022,0.685-3.814,1.938-5.375,3.76
			c-1.538,1.796-2.489,3.747-2.853,5.849c-0.364,2.104-0.166,4.155,0.595,6.154s2.056,3.781,3.885,5.347
			c1.805,1.545,3.759,2.545,5.863,3c2.104,0.455,4.168,0.34,6.19-0.344c2.022-0.683,3.803-1.924,5.34-3.72
			c1.561-1.823,2.523-3.786,2.888-5.89c0.364-2.103,0.166-4.167-0.596-6.19C294.095,185.093,292.813,183.309,291.007,181.764z"/>
		<path d="M328.092,170.539c-1.931,1.651-3.857,2.874-5.776,3.67c-1.919,0.796-4.042,1.217-6.37,1.264
			c-0.462,0.058-0.887,0.009-1.274-0.146c-0.387-0.154-0.706-0.378-0.957-0.671c-0.396-0.463-0.563-1.039-0.5-1.726
			c0.063-0.687,0.375-1.271,0.939-1.753c0.429-0.366,0.946-0.576,1.551-0.629c1.75-0.017,3.368-0.282,4.857-0.794
			c1.488-0.512,2.984-1.41,4.486-2.694c1.073-0.917,1.923-1.918,2.551-3.004c0.627-1.085,0.979-2.125,1.058-3.121
			c0.078-0.995-0.186-1.847-0.791-2.555c-0.751-0.879-1.647-1.369-2.687-1.473c-1.04-0.103-2.238,0.098-3.594,0.602
			c-1.356,0.505-2.873,1.242-4.551,2.211c-1.529,0.927-2.99,1.648-4.383,2.163c-1.394,0.516-2.721,0.795-3.983,0.839
			c-1.262,0.045-2.449-0.176-3.561-0.662c-1.111-0.485-2.137-1.278-3.076-2.376c-1.272-1.488-1.938-3.136-1.998-4.944
			c-0.06-1.807,0.398-3.634,1.373-5.481c0.975-1.846,2.388-3.561,4.239-5.143c1.689-1.445,3.476-2.56,5.358-3.345
			c1.881-0.785,3.623-1.165,5.224-1.14c1.082-0.038,1.873,0.236,2.374,0.822c0.375,0.439,0.53,1.015,0.465,1.725
			c-0.065,0.711-0.354,1.284-0.863,1.719c-0.376,0.322-0.781,0.5-1.216,0.533c-0.784-0.047-1.679,0.073-2.685,0.363
			c-1.006,0.29-2.012,0.674-3.018,1.154c-1.006,0.48-1.884,1.041-2.635,1.683c-1.207,1.032-2.109,2.068-2.707,3.106
			c-0.598,1.04-0.9,2.016-0.908,2.93c-0.008,0.916,0.292,1.726,0.896,2.434c0.709,0.83,1.555,1.29,2.537,1.379
			c0.982,0.09,2.083-0.102,3.303-0.575c1.22-0.473,2.549-1.091,3.986-1.854c1.725-0.968,3.328-1.768,4.808-2.399
			c1.479-0.632,2.867-1.004,4.162-1.119c1.295-0.114,2.522,0.073,3.681,0.56c1.159,0.488,2.282,1.365,3.366,2.634
			c1.251,1.464,1.89,3.136,1.917,5.013c0.026,1.877-0.443,3.758-1.411,5.64S329.916,168.979,328.092,170.539z"/>
		<path d="M334.65,122.459l15.38-9.944c0.623-0.402,1.271-0.553,1.944-0.454c0.673,0.101,1.193,0.433,1.56,0.999
			c0.366,0.566,0.447,1.164,0.244,1.792c-0.203,0.629-0.616,1.144-1.238,1.546l-13.424,8.679v-0.975l5.856,9.058l-0.662-0.146
			l11.379-7.357c0.623-0.402,1.271-0.553,1.944-0.454c0.673,0.101,1.203,0.446,1.586,1.039c0.366,0.566,0.447,1.164,0.244,1.792
			c-0.203,0.629-0.616,1.144-1.238,1.546l-11.291,7.3l0.076-0.565l6.04,9.341l-0.521-0.122l13.291-8.593
			c0.622-0.402,1.274-0.546,1.957-0.434c0.682,0.114,1.189,0.426,1.521,0.938c0.366,0.566,0.451,1.17,0.257,1.812
			c-0.195,0.642-0.603,1.164-1.225,1.566l-15.38,9.944c-0.623,0.402-1.282,0.552-1.979,0.448c-0.697-0.103-1.237-0.452-1.621-1.045
			l-15.635-24.182c-0.383-0.593-0.479-1.229-0.288-1.907C333.621,123.402,334.028,122.861,334.65,122.459z"/>
		<path d="M394.878,91.639c0.853-0.011,1.492,0.291,1.919,0.906c0.426,0.616,0.531,1.312,0.312,2.089
			c-0.146,0.601-0.485,1.063-1.016,1.383c-0.531,0.322-1.13,0.479-1.796,0.474c-1.131,0.001-2.269,0.111-3.414,0.331
			c-1.145,0.22-2.292,0.601-3.44,1.142c-1.82,0.857-3.33,1.897-4.528,3.119c-1.2,1.222-2.09,2.582-2.671,4.08
			c-0.581,1.499-0.83,3.062-0.745,4.69c0.084,1.628,0.517,3.27,1.297,4.925c0.862,1.83,1.928,3.306,3.198,4.429
			c1.27,1.123,2.669,1.918,4.197,2.387c1.528,0.47,3.13,0.601,4.809,0.396c1.678-0.205,3.363-0.706,5.055-1.504
			c1.084-0.511,2.092-1.127,3.02-1.849c0.927-0.721,1.745-1.532,2.452-2.433c0.451-0.532,0.974-0.893,1.566-1.084
			c0.592-0.19,1.167-0.151,1.724,0.119c0.83,0.354,1.321,0.877,1.471,1.569c0.151,0.692-0.034,1.356-0.554,1.991
			c-0.606,0.783-1.32,1.545-2.141,2.286c-0.821,0.742-1.686,1.433-2.593,2.073c-0.908,0.641-1.872,1.202-2.894,1.683
			c-2.298,1.083-4.634,1.757-7.004,2.023c-2.372,0.266-4.67,0.107-6.896-0.477c-2.226-0.583-4.252-1.634-6.079-3.151
			c-1.826-1.516-3.328-3.523-4.505-6.021c-1.054-2.236-1.606-4.504-1.656-6.805c-0.05-2.3,0.374-4.505,1.272-6.615
			c0.898-2.108,2.203-4.037,3.916-5.784c1.712-1.747,3.797-3.2,6.255-4.358c1.532-0.722,3.106-1.25,4.723-1.587
			C391.75,91.728,393.332,91.587,394.878,91.639z"/>
		<path d="M466.131,70.006c0.835,0.169,1.397,0.598,1.686,1.289c0.287,0.692,0.242,1.394-0.135,2.108
			c-0.27,0.557-0.698,0.937-1.284,1.139c-0.587,0.203-1.206,0.231-1.855,0.085c-1.106-0.237-2.241-0.369-3.406-0.394
			c-1.166-0.026-2.367,0.105-3.604,0.393c-1.959,0.456-3.653,1.155-5.083,2.097c-1.43,0.943-2.585,2.084-3.469,3.427
			c-0.884,1.343-1.455,2.819-1.715,4.428c-0.26,1.61-0.183,3.305,0.232,5.087c0.458,1.97,1.189,3.638,2.195,5.002
			c1.006,1.365,2.206,2.438,3.602,3.217c1.395,0.78,2.934,1.246,4.618,1.398c1.684,0.152,3.437,0.017,5.259-0.407
			c1.168-0.271,2.282-0.662,3.341-1.172c1.059-0.51,2.028-1.131,2.909-1.863c0.553-0.425,1.14-0.668,1.759-0.73
			c0.62-0.061,1.173,0.098,1.661,0.479c0.736,0.521,1.106,1.136,1.107,1.844c0.002,0.708-0.318,1.318-0.96,1.83
			c-0.758,0.638-1.615,1.233-2.574,1.785c-0.958,0.553-1.949,1.046-2.97,1.481c-1.022,0.436-2.083,0.781-3.184,1.037
			c-2.475,0.575-4.899,0.744-7.273,0.505s-4.588-0.877-6.641-1.917c-2.054-1.038-3.813-2.491-5.28-4.359
			c-1.467-1.867-2.513-4.145-3.138-6.834c-0.56-2.407-0.623-4.741-0.188-7.001c0.434-2.259,1.312-4.326,2.634-6.199
			c1.321-1.873,3.003-3.483,5.045-4.832c2.041-1.348,4.385-2.33,7.032-2.946c1.649-0.383,3.299-0.569,4.951-0.558
			C463.054,69.437,464.63,69.631,466.131,70.006z"/>
		<path d="M509.966,91.561c0.737-0.077,1.383,0.082,1.939,0.476c0.555,0.395,0.868,0.926,0.938,1.597
			c0.07,0.67-0.127,1.256-0.588,1.756c-0.463,0.5-1.063,0.789-1.8,0.865l-17.689,1.845c-0.772,0.081-1.438-0.084-1.994-0.494
			c-0.557-0.409-0.872-0.966-0.945-1.668l-2.986-28.641c-0.073-0.702,0.129-1.312,0.607-1.83c0.478-0.518,1.139-0.821,1.98-0.909
			c0.702-0.073,1.349,0.094,1.941,0.5c0.592,0.406,0.925,0.961,0.998,1.663l2.837,27.204l-1.19-0.699L509.966,91.561z"/>
		<path d="M555.818,62.122c0.775,0.018,1.388,0.266,1.836,0.741c0.447,0.477,0.663,1.068,0.646,1.773l-0.425,18.246
			c-0.061,2.568-0.731,4.848-2.013,6.841c-1.283,1.993-3.013,3.535-5.191,4.624c-2.179,1.089-4.679,1.601-7.501,1.535
			c-2.787-0.065-5.252-0.692-7.396-1.882c-2.143-1.189-3.817-2.811-5.022-4.861c-1.205-2.051-1.778-4.36-1.718-6.928l0.426-18.246
			c0.016-0.706,0.294-1.285,0.834-1.738c0.54-0.453,1.233-0.67,2.08-0.65c0.67,0.016,1.273,0.263,1.81,0.74
			c0.536,0.479,0.796,1.071,0.779,1.776l-0.426,18.246c-0.039,1.702,0.341,3.195,1.141,4.482c0.799,1.288,1.878,2.308,3.237,3.062
			c1.359,0.754,2.814,1.149,4.367,1.186c1.693,0.04,3.254-0.285,4.682-0.975c1.428-0.689,2.589-1.657,3.483-2.905
			c0.894-1.247,1.36-2.721,1.4-4.423l0.425-18.245c0.017-0.706,0.25-1.287,0.703-1.742
			C554.428,62.323,555.042,62.104,555.818,62.122z"/>
		<path d="M597.02,66.968c3.205,0.516,5.521,1.621,6.945,3.313s1.919,3.902,1.479,6.628c-0.229,1.426-0.813,2.657-1.747,3.693
			c-0.937,1.037-2.181,1.771-3.732,2.204c-1.554,0.433-3.413,0.492-5.577,0.175l0.388-1.742c1.149,0.185,2.372,0.528,3.667,1.03
			c1.295,0.501,2.479,1.196,3.552,2.084c1.071,0.888,1.896,1.988,2.471,3.3s0.72,2.855,0.435,4.63
			c-0.312,1.934-0.919,3.485-1.822,4.657c-0.904,1.171-1.989,2.029-3.256,2.573c-1.268,0.544-2.613,0.855-4.038,0.935
			s-2.799,0.013-4.123-0.201l-13.378-2.154c-0.731-0.118-1.322-0.448-1.771-0.992c-0.448-0.543-0.617-1.164-0.505-1.862l4.578-28.43
			c0.112-0.697,0.467-1.233,1.063-1.609c0.597-0.375,1.261-0.504,1.992-0.387L597.02,66.968z M593.714,85.165l-10.399-1.675
			l0.419-0.274l-1.807,11.22l-0.349-0.496l10.765,1.734c1.812,0.292,3.345,0.092,4.601-0.601c1.255-0.692,2.025-1.925,2.312-3.701
			c0.24-1.489,0.087-2.652-0.457-3.488c-0.545-0.835-1.284-1.458-2.219-1.869C595.645,85.606,594.688,85.322,593.714,85.165z
			 M595.537,71.509l-10.295-1.658l0.75-0.66l-1.646,10.221l-0.49-0.615l10.348,1.666c1.259,0.171,2.427-0.04,3.506-0.63
			c1.077-0.59,1.734-1.615,1.969-3.073c0.24-1.489-0.016-2.677-0.767-3.562C598.16,72.314,597.035,71.75,595.537,71.509z"/>
	</g>
</g>
<g id="Layer_7">
	<g>
		<path fill="none" d="M243,353c0.738-3.624,37-357,420.234-221.172"/>
		<path d="M248.773,310.758c0.705,0.215,1.227,0.644,1.563,1.285c0.338,0.643,0.417,1.317,0.237,2.025
			c-0.197,0.776-0.592,1.349-1.186,1.718c-0.594,0.37-1.248,0.464-1.961,0.283l-29.082-7.376c-0.713-0.181-1.241-0.584-1.583-1.209
			c-0.341-0.625-0.41-1.342-0.205-2.151c0.171-0.674,0.558-1.212,1.16-1.617c0.603-0.403,1.261-0.514,1.974-0.333L248.773,310.758z"
			/>
		<path d="M232.18,256.089c0.234-0.655,0.637-1.111,1.208-1.369c0.571-0.257,1.172-0.273,1.802-0.048l28.442,10.166
			c0.693,0.248,1.183,0.691,1.47,1.329c0.287,0.639,0.301,1.318,0.044,2.038c-0.117,0.328-0.306,0.658-0.566,0.989
			c-0.26,0.332-0.536,0.556-0.827,0.674l-32.398,11.192l-0.21-1.35l24.332,8.696c0.599,0.214,1.034,0.61,1.307,1.188
			c0.273,0.578,0.292,1.194,0.058,1.849c-0.246,0.688-0.654,1.161-1.226,1.418c-0.572,0.258-1.156,0.279-1.755,0.065l-28.489-10.182
			c-0.725-0.259-1.219-0.713-1.485-1.362c-0.265-0.649-0.275-1.317-0.029-2.005c0.128-0.36,0.337-0.719,0.625-1.079
			c0.288-0.358,0.609-0.586,0.963-0.681l31.704-10.887l0.398,0.974l-23.954-8.562c-0.629-0.225-1.082-0.626-1.354-1.204
			C231.965,257.361,231.946,256.744,232.18,256.089z"/>
		<path d="M274.623,246.694c-0.376,0.745-0.895,1.234-1.556,1.464c-0.66,0.232-1.318,0.181-1.976-0.151l-26.776-13.537
			c-0.656-0.332-1.083-0.84-1.281-1.525c-0.197-0.684-0.131-1.353,0.198-2.004l7.957-15.738c0.345-0.683,0.841-1.144,1.486-1.383
			c0.646-0.238,1.282-0.2,1.909,0.117c0.567,0.287,0.946,0.762,1.136,1.422c0.19,0.662,0.113,1.334-0.232,2.016l-6.874,13.596
			l-0.283-0.552l9.985,5.048l-0.679,0.008l5.791-11.454c0.345-0.683,0.841-1.144,1.486-1.383c0.646-0.238,1.282-0.2,1.908,0.117
			c0.567,0.287,0.946,0.761,1.136,1.422c0.191,0.662,0.113,1.334-0.232,2.016l-5.838,11.547l-0.17-0.554l11.821,5.976
			c0.657,0.333,1.084,0.841,1.281,1.525C275.019,245.375,274.952,246.042,274.623,246.694z"/>
		<path d="M296.5,177.618c2.076,1.467,3.757,3.189,5.044,5.163c1.288,1.975,2.144,4.082,2.568,6.319
			c0.425,2.239,0.391,4.504-0.103,6.795c-0.494,2.292-1.483,4.489-2.968,6.591c-1.466,2.074-3.197,3.725-5.192,4.956
			c-1.996,1.23-4.12,2.019-6.372,2.365c-2.252,0.347-4.518,0.236-6.799-0.333c-2.281-0.568-4.459-1.586-6.535-3.054
			c-2.076-1.467-3.763-3.18-5.06-5.141c-1.297-1.96-2.159-4.059-2.583-6.298c-0.425-2.238-0.391-4.502,0.103-6.795
			c0.494-2.292,1.473-4.474,2.938-6.548c1.485-2.102,3.226-3.768,5.222-4.999c1.996-1.229,4.12-2.018,6.372-2.365
			c2.252-0.346,4.523-0.242,6.814,0.312C292.24,175.141,294.424,176.151,296.5,177.618z M293.248,182.22
			c-2.021-1.428-4.134-2.292-6.337-2.594c-2.204-0.301-4.292-0.041-6.265,0.779c-1.973,0.821-3.642,2.197-5.007,4.128
			c-1.345,1.903-2.075,3.922-2.19,6.055c-0.115,2.134,0.335,4.177,1.351,6.13c1.016,1.954,2.548,3.653,4.597,5.101
			c2.022,1.429,4.129,2.301,6.323,2.616c2.194,0.316,4.277,0.063,6.25-0.758c1.972-0.82,3.631-2.183,4.977-4.086
			c1.365-1.931,2.105-3.963,2.22-6.097c0.115-2.133-0.337-4.188-1.356-6.166C296.789,185.352,295.27,183.649,293.248,182.22z"/>
		<path d="M329.588,168.598c-1.776,1.766-3.591,3.098-5.443,3.997c-1.854,0.899-3.951,1.428-6.294,1.588
			c-0.46,0.081-0.894,0.051-1.3-0.087c-0.407-0.138-0.751-0.349-1.035-0.634c-0.448-0.451-0.677-1.025-0.685-1.725
			c-0.009-0.699,0.246-1.306,0.764-1.821c0.395-0.392,0.894-0.629,1.499-0.712c1.763-0.101,3.368-0.448,4.816-1.039
			c1.448-0.59,2.862-1.573,4.244-2.946c0.986-0.98,1.74-2.036,2.26-3.166c0.52-1.129,0.767-2.201,0.741-3.213
			c-0.025-1.012-0.38-1.862-1.064-2.55c-0.849-0.854-1.804-1.308-2.863-1.363c-1.06-0.054-2.248,0.207-3.563,0.783
			c-1.315,0.577-2.768,1.396-4.36,2.459c-1.446,1.013-2.844,1.814-4.196,2.403c-1.352,0.59-2.662,0.938-3.93,1.042
			c-1.269,0.106-2.488-0.061-3.661-0.5c-1.171-0.438-2.288-1.192-3.35-2.259c-1.438-1.446-2.282-3.083-2.53-4.913
			c-0.248-1.828,0.023-3.702,0.813-5.62c0.791-1.917,2.037-3.723,3.739-5.415c1.554-1.545,3.239-2.761,5.056-3.647
			c1.816-0.886,3.533-1.355,5.15-1.406c1.087-0.091,1.914,0.149,2.48,0.718c0.424,0.427,0.64,1.002,0.648,1.725
			c0.008,0.724-0.223,1.318-0.691,1.784c-0.346,0.344-0.735,0.543-1.171,0.598c-0.795-0.01-1.686,0.155-2.67,0.497
			c-0.984,0.342-1.959,0.78-2.923,1.315c-0.965,0.535-1.792,1.146-2.482,1.832c-1.11,1.104-1.913,2.196-2.407,3.277
			c-0.495,1.082-0.698,2.085-0.61,3.012c0.087,0.928,0.474,1.734,1.157,2.422c0.802,0.807,1.703,1.232,2.703,1.275
			c1,0.044,2.09-0.203,3.272-0.742c1.182-0.538,2.458-1.229,3.827-2.071c1.639-1.063,3.173-1.952,4.6-2.663s2.788-1.155,4.082-1.334
			c1.294-0.178,2.551-0.048,3.771,0.389c1.22,0.439,2.444,1.274,3.67,2.507c1.415,1.423,2.233,3.086,2.456,4.987
			c0.223,1.901-0.055,3.829-0.835,5.783S331.265,166.93,329.588,168.598z"/>
		<path d="M332.486,118.964l14.783-10.361c0.598-0.419,1.238-0.582,1.92-0.488c0.682,0.095,1.224,0.428,1.627,1.003
			c0.403,0.575,0.523,1.187,0.36,1.831c-0.164,0.646-0.544,1.178-1.142,1.598l-12.903,9.043l-0.063-0.998l6.451,9.203l-0.672-0.141
			l10.938-7.667c0.598-0.419,1.238-0.582,1.92-0.488c0.682,0.095,1.234,0.443,1.656,1.045c0.403,0.575,0.522,1.186,0.359,1.831
			c-0.164,0.646-0.544,1.178-1.142,1.597l-10.852,7.606l0.04-0.58l6.652,9.491l-0.53-0.119l12.774-8.954
			c0.598-0.419,1.243-0.574,1.935-0.467c0.691,0.108,1.22,0.422,1.584,0.942c0.403,0.575,0.527,1.192,0.374,1.852
			c-0.154,0.659-0.53,1.198-1.128,1.618l-14.782,10.361c-0.598,0.419-1.25,0.581-1.956,0.482c-0.706-0.097-1.27-0.447-1.692-1.05
			l-17.221-24.569c-0.422-0.602-0.559-1.252-0.41-1.949C331.515,119.941,331.888,119.383,332.486,118.964z"/>
		<path d="M392.921,87.239c0.849,0.017,1.489,0.35,1.919,0.998c0.431,0.649,0.542,1.372,0.331,2.166
			c-0.14,0.616-0.472,1.081-0.998,1.394c-0.526,0.314-1.12,0.457-1.783,0.429c-1.126-0.037-2.258,0.04-3.396,0.229
			c-1.138,0.189-2.275,0.544-3.414,1.065c-1.803,0.825-3.295,1.848-4.477,3.068c-1.182,1.222-2.055,2.595-2.619,4.122
			s-0.796,3.132-0.695,4.814c0.101,1.684,0.547,3.391,1.34,5.125c0.876,1.917,1.953,3.475,3.229,4.675
			c1.275,1.201,2.676,2.068,4.202,2.603c1.526,0.535,3.123,0.723,4.792,0.567c1.668-0.156,3.341-0.618,5.018-1.385
			c1.075-0.492,2.071-1.094,2.988-1.808c0.916-0.713,1.722-1.523,2.417-2.43c0.444-0.534,0.96-0.889,1.549-1.067
			c0.588-0.177,1.16-0.117,1.717,0.18c0.83,0.393,1.323,0.949,1.48,1.667c0.157,0.72-0.021,1.398-0.532,2.037
			c-0.596,0.788-1.298,1.551-2.108,2.289c-0.81,0.738-1.664,1.423-2.561,2.054c-0.897,0.631-1.852,1.178-2.864,1.641
			c-2.278,1.042-4.596,1.661-6.954,1.856c-2.359,0.196-4.648-0.044-6.87-0.72c-2.222-0.675-4.249-1.826-6.083-3.452
			c-1.833-1.625-3.348-3.746-4.545-6.362c-1.071-2.342-1.644-4.701-1.716-7.077c-0.073-2.375,0.327-4.636,1.2-6.783
			c0.874-2.146,2.153-4.092,3.841-5.839c1.688-1.746,3.749-3.176,6.185-4.291c1.519-0.694,3.08-1.188,4.687-1.481
			C389.808,87.229,391.382,87.135,392.921,87.239z"/>
		<path d="M466.357,69.371c0.813,0.247,1.338,0.74,1.576,1.481c0.238,0.742,0.15,1.467-0.268,2.174
			c-0.303,0.555-0.748,0.912-1.34,1.071c-0.59,0.16-1.201,0.136-1.832-0.071c-1.074-0.341-2.184-0.574-3.33-0.701
			c-1.146-0.126-2.338-0.093-3.574,0.099c-1.959,0.304-3.674,0.884-5.143,1.738c-1.469,0.855-2.682,1.94-3.639,3.257
			c-0.957,1.316-1.615,2.798-1.975,4.445c-0.36,1.647-0.395,3.413-0.102,5.296c0.324,2.083,0.938,3.875,1.84,5.375
			c0.9,1.502,2.014,2.717,3.338,3.645c1.322,0.929,2.809,1.543,4.457,1.846s3.385,0.312,5.207,0.029
			c1.168-0.182,2.289-0.491,3.365-0.93c1.076-0.438,2.072-0.999,2.986-1.683c0.572-0.394,1.166-0.595,1.779-0.607
			c0.615-0.01,1.148,0.203,1.605,0.64c0.691,0.603,1.016,1.272,0.971,2.007c-0.043,0.735-0.398,1.34-1.063,1.815
			c-0.789,0.597-1.672,1.14-2.652,1.63c-0.979,0.491-1.986,0.918-3.021,1.282c-1.033,0.364-2.102,0.631-3.201,0.802
			c-2.475,0.385-4.873,0.352-7.195-0.1c-2.324-0.451-4.463-1.303-6.418-2.557c-1.955-1.253-3.594-2.911-4.917-4.974
			c-1.323-2.062-2.206-4.514-2.648-7.357c-0.396-2.544-0.307-4.97,0.268-7.277c0.574-2.306,1.572-4.374,2.996-6.203
			c1.423-1.829,3.183-3.355,5.282-4.578c2.098-1.223,4.469-2.041,7.115-2.452c1.65-0.256,3.287-0.308,4.914-0.154
			C463.365,68.516,464.904,68.853,466.357,69.371z"/>
		<path d="M508.249,95.726c0.73-0.012,1.352,0.212,1.863,0.672s0.774,1.041,0.786,1.743c0.012,0.702-0.231,1.292-0.728,1.768
			c-0.496,0.477-1.109,0.721-1.84,0.733l-17.528,0.292c-0.766,0.013-1.404-0.219-1.916-0.696c-0.513-0.476-0.774-1.082-0.787-1.818
			l-0.499-29.999c-0.013-0.735,0.238-1.35,0.752-1.844c0.514-0.493,1.188-0.748,2.022-0.761c0.695-0.012,1.316,0.221,1.864,0.696
			c0.547,0.477,0.826,1.083,0.839,1.818l0.475,28.494l-1.11-0.834L508.249,95.726z"/>
		<path d="M555.952,68.925c0.761,0.078,1.342,0.382,1.742,0.91c0.4,0.529,0.563,1.16,0.487,1.891l-1.943,18.916
			c-0.273,2.663-1.124,4.979-2.55,6.951c-1.428,1.972-3.257,3.44-5.488,4.404c-2.232,0.964-4.732,1.304-7.5,1.02
			c-2.733-0.281-5.104-1.121-7.109-2.521c-2.007-1.399-3.518-3.211-4.529-5.434c-1.014-2.222-1.383-4.664-1.109-7.326l1.944-18.916
			c0.075-0.731,0.397-1.312,0.966-1.742c0.568-0.428,1.268-0.601,2.099-0.516c0.656,0.067,1.229,0.371,1.716,0.908
			c0.486,0.538,0.692,1.173,0.617,1.904L533.35,88.29c-0.181,1.764,0.067,3.344,0.746,4.742c0.677,1.398,1.652,2.541,2.925,3.428
			c1.272,0.888,2.67,1.409,4.192,1.566c1.661,0.17,3.222-0.047,4.683-0.654s2.683-1.522,3.666-2.75
			c0.982-1.227,1.564-2.722,1.746-4.486l1.944-18.916c0.075-0.731,0.353-1.317,0.836-1.755
			C554.569,69.027,555.191,68.846,555.952,68.925z"/>
		<path d="M595.726,75.989c3.133,0.651,5.355,1.881,6.667,3.69s1.676,4.123,1.091,6.939c-0.307,1.474-0.95,2.732-1.93,3.775
			c-0.981,1.044-2.249,1.762-3.805,2.156c-1.557,0.395-3.395,0.389-5.512-0.017l0.479-1.796c1.124,0.233,2.311,0.634,3.561,1.201
			c1.249,0.567,2.379,1.332,3.388,2.292c1.008,0.961,1.759,2.133,2.254,3.517c0.493,1.384,0.551,2.993,0.17,4.827
			c-0.415,1.998-1.102,3.589-2.058,4.774c-0.957,1.185-2.075,2.038-3.354,2.557c-1.281,0.521-2.626,0.796-4.035,0.828
			c-1.411,0.032-2.763-0.087-4.057-0.355l-13.077-2.715c-0.715-0.148-1.279-0.513-1.691-1.094c-0.412-0.581-0.543-1.231-0.394-1.952
			l6.1-29.376c0.149-0.72,0.529-1.265,1.139-1.634s1.272-0.479,1.987-0.331L595.726,75.989z M591.451,94.778l-10.166-2.111
			l0.43-0.27l-2.408,11.593l-0.316-0.527l10.523,2.185c1.771,0.368,3.294,0.215,4.571-0.46c1.276-0.674,2.105-1.928,2.486-3.762
			c0.319-1.539,0.233-2.752-0.256-3.64c-0.491-0.888-1.187-1.561-2.085-2.021C593.331,95.306,592.404,94.977,591.451,94.778z
			 M594.011,80.655l-10.063-2.09l0.776-0.659l-2.193,10.562l-0.449-0.657l10.114,2.1c1.232,0.223,2.396,0.045,3.494-0.53
			c1.096-0.575,1.801-1.616,2.113-3.123c0.319-1.539,0.133-2.782-0.558-3.729C596.553,81.584,595.475,80.958,594.011,80.655z"/>
	</g>
</g>
</svg>
