<?xml version="1.0" standalone="no"?>
<!DOCTYPE svg PUBLIC "-//W3C//DTD SVG 20010904//EN"
 "http://www.w3.org/TR/2001/REC-SVG-20010904/DTD/svg10.dtd">
<svg version="1.0" xmlns="http://www.w3.org/2000/svg"
 width="1118.000000pt" height="908.000000pt" viewBox="0 0 1118.000000 908.000000"
 preserveAspectRatio="xMidYMid meet">
<metadata>
Created by potrace 1.16, written by Peter Selinger 2001-2019
</metadata>
<g transform="translate(0.000000,908.000000) scale(0.100000,-0.100000)"
fill="#ffffff" stroke="none">
<path d="M6000 8142 c-30 -2 -59 -7 -64 -13 -6 -5 -28 -9 -50 -9 -43 0 -99 -9
-323 -51 -35 -6 -63 -16 -63 -20 0 -5 -9 -9 -21 -9 -28 0 -153 -33 -159 -42
-3 -4 -25 -10 -48 -14 -23 -4 -42 -10 -42 -15 0 -5 -10 -9 -23 -9 -13 0 -32
-7 -43 -15 -10 -8 -29 -15 -41 -15 -12 0 -23 -3 -25 -8 -1 -4 -42 -23 -90 -42
-49 -19 -88 -38 -88 -41 0 -4 -12 -10 -27 -14 -15 -3 -30 -10 -33 -13 -3 -4
-25 -17 -50 -29 -56 -27 -123 -66 -130 -74 -3 -4 -15 -9 -27 -13 -13 -4 -23
-12 -23 -17 0 -5 -4 -9 -10 -9 -10 0 -105 -56 -127 -75 -36 -30 -43 -35 -50
-35 -5 0 -20 -11 -35 -25 -15 -14 -30 -25 -33 -25 -3 0 -16 -11 -28 -23 -12
-13 -29 -28 -38 -33 -40 -22 -349 -313 -349 -328 0 -2 -22 -28 -50 -57 -27
-29 -50 -56 -50 -60 0 -4 -13 -21 -30 -37 -17 -17 -30 -33 -30 -37 0 -4 -6
-13 -12 -20 -29 -32 -38 -45 -38 -52 0 -4 -12 -19 -25 -32 -14 -13 -28 -34
-31 -47 -3 -13 -9 -24 -14 -24 -4 0 -15 -16 -26 -35 -10 -19 -22 -35 -26 -35
-5 0 -8 -6 -8 -14 0 -8 -6 -21 -13 -28 -6 -7 -21 -31 -32 -53 -11 -22 -23 -42
-26 -45 -4 -3 -9 -15 -13 -27 -4 -13 -12 -23 -17 -23 -5 0 -9 -5 -9 -10 0 -9
-59 -141 -96 -213 -8 -16 -14 -37 -14 -48 0 -10 -4 -19 -9 -19 -5 0 -12 -20
-15 -45 -4 -25 -11 -45 -15 -45 -5 0 -11 -12 -14 -27 -13 -63 -32 -123 -39
-123 -3 0 -10 -25 -13 -55 -4 -30 -11 -55 -16 -55 -5 0 -9 -13 -9 -29 0 -16
-5 -42 -11 -58 -16 -42 -37 -191 -59 -428 -12 -121 -10 -359 4 -413 3 -13 8
-69 12 -123 4 -55 11 -102 15 -105 5 -3 9 -19 9 -35 0 -32 27 -153 40 -179 4
-9 11 -36 14 -60 4 -25 11 -54 15 -65 5 -11 16 -47 26 -80 10 -33 24 -74 31
-92 8 -17 14 -35 14 -40 0 -5 11 -33 25 -61 14 -29 25 -59 25 -67 0 -8 4 -15
9 -15 5 0 12 -14 16 -30 4 -17 11 -30 16 -30 5 0 9 -11 9 -25 0 -14 4 -25 9
-25 5 0 12 -11 15 -25 4 -14 10 -25 15 -25 5 0 12 -14 16 -30 4 -17 10 -30 15
-30 4 0 10 -8 14 -17 6 -19 27 -55 37 -63 4 -3 9 -15 13 -26 6 -18 -1 -25 -46
-47 -29 -14 -64 -29 -78 -32 -34 -9 -164 -58 -170 -65 -8 -8 -72 -32 -102 -37
-16 -3 -28 -9 -28 -13 0 -4 -21 -11 -47 -15 -27 -4 -52 -10 -58 -15 -5 -4 -39
-10 -75 -13 -93 -9 -142 -25 -138 -44 4 -24 64 -53 120 -60 27 -3 51 -10 54
-14 3 -5 185 -9 405 -9 219 0 399 -1 399 -3 0 -2 -47 -50 -105 -108 -58 -57
-105 -108 -105 -112 0 -4 -10 -18 -23 -30 -12 -12 -48 -56 -79 -97 -30 -41
-78 -96 -105 -121 -27 -25 -64 -66 -83 -90 -19 -24 -45 -54 -57 -65 -13 -12
-23 -25 -23 -29 0 -4 -42 -48 -92 -99 -96 -95 -148 -152 -148 -161 0 -3 -17
-22 -37 -43 -21 -21 -50 -53 -65 -72 -14 -19 -44 -54 -67 -77 -23 -23 -41 -44
-41 -47 0 -3 -29 -35 -65 -73 -36 -37 -65 -71 -65 -75 0 -4 -14 -21 -30 -38
-17 -17 -30 -33 -30 -35 0 -5 -39 -52 -67 -81 -7 -7 -13 -15 -13 -18 0 -2 -31
-36 -69 -75 -38 -39 -86 -92 -108 -118 -21 -26 -44 -52 -50 -56 -7 -4 -13 -12
-13 -17 0 -5 -40 -49 -88 -98 -49 -48 -97 -103 -108 -120 -10 -18 -22 -32 -26
-32 -4 0 -8 -5 -8 -11 0 -12 -50 -78 -90 -120 -14 -14 -54 -59 -90 -99 -36
-41 -71 -79 -77 -86 -7 -7 -13 -17 -13 -22 0 -6 -4 -12 -8 -14 -4 -2 -23 -23
-42 -48 -19 -24 -45 -54 -57 -66 -13 -12 -23 -25 -23 -30 0 -5 -14 -23 -30
-41 -17 -18 -30 -35 -30 -38 0 -3 -21 -27 -47 -53 -55 -54 -113 -126 -113
-141 0 -5 -6 -11 -12 -13 -8 -3 -1 -16 19 -36 63 -64 121 -38 286 130 59 61
107 113 107 118 0 14 37 40 58 40 23 0 103 42 131 68 28 27 75 62 82 62 11 0
73 56 183 164 l101 100 56 -3 c52 -2 59 1 120 45 35 26 66 50 69 53 3 3 32 26
65 51 33 25 62 48 63 53 2 4 9 7 15 7 7 0 26 14 44 30 18 17 35 30 38 30 4 0
39 33 79 73 60 61 75 72 89 63 12 -8 22 -8 35 2 9 6 24 15 32 19 8 4 26 17 40
30 14 13 28 23 33 23 4 0 18 11 31 25 13 14 26 25 30 25 17 0 84 66 371 365
212 220 222 231 226 243 6 14 70 91 98 116 48 43 111 105 111 110 0 3 14 20
31 38 17 18 38 44 47 58 9 14 41 48 72 75 30 28 74 69 98 93 41 40 72 54 72
32 0 -5 7 -10 15 -10 8 0 15 -4 15 -9 0 -5 10 -13 22 -16 11 -4 31 -17 42 -30
12 -12 31 -25 44 -29 12 -4 22 -12 22 -17 0 -5 7 -9 15 -9 8 0 15 -4 15 -10 0
-5 6 -10 14 -10 8 0 21 -6 28 -13 7 -6 29 -21 48 -31 19 -11 37 -22 40 -25 3
-3 26 -16 52 -29 26 -13 50 -27 53 -33 4 -5 15 -9 25 -9 10 0 20 -3 22 -8 4
-10 135 -72 153 -72 8 0 15 -4 15 -10 0 -5 10 -10 23 -10 13 0 32 -7 43 -15
10 -8 29 -15 42 -15 12 0 22 -4 22 -10 0 -5 18 -13 40 -16 22 -4 40 -10 40
-15 0 -5 8 -9 19 -9 17 0 58 -11 169 -46 23 -8 56 -14 72 -14 17 0 30 -4 30
-10 0 -5 7 -10 15 -10 10 0 15 -10 15 -30 0 -37 15 -39 24 -4 7 25 9 26 54 19
105 -15 171 -25 239 -34 40 -5 78 -13 84 -17 29 -18 107 -31 125 -21 10 6 59
12 109 13 49 2 119 6 155 10 l65 6 53 -51 c28 -27 52 -55 52 -61 0 -18 29 -42
44 -37 15 6 29 47 15 47 -5 0 -9 10 -9 23 0 12 -4 28 -9 36 -15 23 -2 42 19
31 10 -6 29 -10 42 -10 25 -1 67 -20 140 -63 45 -27 68 -29 68 -5 0 15 -51 57
-77 64 -13 4 -23 10 -23 15 0 5 -7 9 -15 9 -8 0 -15 7 -15 15 0 8 9 15 20 15
33 0 90 68 90 107 0 29 -17 29 -44 0 -25 -25 -45 -39 -94 -63 -25 -13 -48 -15
-100 -10 -37 3 -70 6 -73 6 -4 0 -14 19 -24 42 -9 24 -20 45 -24 48 -4 3 -22
46 -40 95 -31 83 -48 127 -71 180 -5 11 -11 31 -14 45 -13 61 -30 125 -36 130
-3 3 -12 32 -19 64 -11 47 -11 70 -1 117 7 33 17 59 21 59 12 0 11 137 -1 145
-5 3 -10 18 -10 33 0 15 -7 40 -15 56 -8 15 -15 35 -15 43 0 8 -7 28 -16 45
-21 40 -11 78 20 78 13 0 29 7 36 15 7 8 18 15 25 15 8 0 15 4 17 8 2 5 26 23
53 42 28 18 52 36 55 40 3 3 30 21 60 40 30 19 57 37 60 40 3 3 20 13 39 24
19 10 42 26 51 35 54 49 88 79 115 99 98 75 297 267 308 297 4 8 11 15 17 15
5 0 10 6 10 13 0 7 12 26 28 43 32 34 82 100 82 109 0 3 8 14 18 25 9 10 28
40 42 67 14 26 27 50 30 53 11 11 40 73 40 86 0 8 4 14 9 14 6 0 13 20 17 45
3 25 9 45 13 45 11 0 44 226 61 415 6 61 15 120 20 133 6 13 10 46 10 75 1 29
5 70 10 92 5 22 12 54 15 70 4 17 13 44 21 62 8 17 14 36 14 42 0 6 5 11 10
11 6 0 10 4 10 10 0 5 12 23 28 39 38 41 52 59 52 65 0 16 141 147 178 166 37
19 54 22 122 18 44 -3 83 -7 86 -10 6 -6 -13 -44 -33 -66 -7 -7 -13 -20 -13
-28 0 -8 -4 -14 -10 -14 -5 0 -10 -6 -10 -14 0 -17 -32 -80 -42 -84 -5 -2 -8
-10 -8 -17 0 -8 -6 -20 -13 -27 -6 -7 -21 -32 -32 -55 -11 -24 -23 -43 -27
-43 -5 0 -8 -6 -8 -14 0 -16 -29 -73 -47 -94 -7 -7 -13 -19 -13 -27 0 -7 -3
-15 -7 -17 -5 -1 -23 -32 -41 -68 -63 -122 -87 -165 -94 -168 -14 -6 -9 -70 6
-75 8 -3 24 5 36 18 l22 23 54 -29 c30 -17 59 -27 64 -24 13 8 13 52 0 60 -15
9 -12 78 6 113 13 27 20 31 40 26 16 -4 31 -1 44 11 24 22 47 14 52 -17 3 -26
38 -39 38 -14 0 9 4 16 8 16 12 0 33 50 27 61 -4 5 -11 9 -16 9 -8 0 -64 35
-79 50 -3 3 -18 12 -33 20 -23 11 -27 18 -22 40 4 14 11 27 16 28 5 2 9 10 9
17 0 8 6 20 13 27 6 7 22 33 35 58 24 48 44 82 52 90 9 9 28 44 62 110 18 36
39 71 46 78 6 7 12 17 12 22 0 21 129 -7 217 -46 17 -8 34 -14 38 -14 3 0 13
-7 21 -15 18 -17 33 -19 54 -5 9 6 11 13 5 18 -11 7 -30 37 -42 62 -4 8 -17
24 -29 35 -11 11 -24 30 -28 43 -4 12 -12 22 -17 22 -5 0 -9 4 -9 9 0 5 -24
32 -52 60 l-53 52 30 57 c17 31 33 59 38 60 4 2 7 9 7 16 0 7 6 20 13 30 12
16 15 17 29 3 25 -25 78 -26 78 -2 0 15 -13 29 -55 59 -19 14 -19 14 5 50 27
39 41 44 64 21 22 -22 53 -19 60 8 5 21 -4 34 -43 57 -12 6 -8 21 21 81 20 41
39 84 42 96 8 24 67 63 96 63 10 0 22 5 25 10 3 6 17 10 30 10 13 0 27 -4 30
-10 3 -5 15 -10 26 -10 40 0 90 -71 91 -130 1 -59 -27 -105 -73 -120 -37 -13
-104 -5 -81 9 6 3 17 22 25 40 13 30 13 36 -2 52 -21 25 -72 25 -94 -1 -20
-24 -22 -49 -4 -82 27 -52 45 -62 118 -62 61 0 70 3 93 27 14 15 28 27 31 27
4 0 13 7 22 15 11 11 15 38 16 98 1 91 -2 96 -72 147 -19 13 -29 26 -23 28 15
5 17 182 2 182 -5 0 -10 9 -10 20 0 11 4 20 8 20 5 0 17 15 27 33 22 42 15 78
-21 101 -54 36 -107 16 -129 -49 -10 -28 -14 -30 -76 -35 -36 -3 -75 -12 -85
-20 -28 -22 -74 -72 -74 -82 0 -13 -20 -9 -38 8 -12 12 -28 15 -66 11 -28 -2
-52 -10 -54 -16 -2 -6 -14 -11 -26 -11 -16 0 -28 -11 -42 -37 -10 -21 -22 -39
-26 -41 -29 -13 17 -162 49 -162 7 0 13 -4 13 -8 0 -5 17 -17 38 -26 34 -15
41 -16 74 -1 60 24 76 77 36 115 -28 26 -56 25 -80 -2 -14 -17 -18 -32 -15
-56 5 -28 3 -31 -11 -23 -47 25 -72 60 -72 100 0 22 7 46 15 55 8 8 15 18 15
23 0 17 58 43 94 43 37 0 53 -11 99 -69 10 -13 21 -38 24 -57 3 -19 10 -34 14
-34 5 0 9 -13 9 -30 0 -16 -4 -30 -10 -30 -5 0 -10 -6 -10 -14 0 -8 -6 -21
-13 -28 -7 -7 -24 -35 -38 -63 -23 -45 -29 -50 -59 -50 -41 0 -48 -17 -20 -45
22 -22 22 -22 4 -57 -17 -31 -22 -34 -52 -29 -50 8 -63 0 -50 -30 6 -13 17
-24 25 -24 16 0 17 -37 1 -55 -31 -34 -38 -45 -38 -57 0 -7 -10 -26 -23 -41
-21 -26 -25 -28 -50 -16 -15 7 -27 16 -27 21 0 4 -7 8 -15 8 -9 0 -18 7 -21
15 -4 8 -11 15 -18 15 -13 0 -106 88 -106 100 0 5 -6 15 -12 22 -7 7 -29 37
-48 65 -19 29 -38 53 -42 53 -5 0 -8 6 -8 14 0 17 -137 146 -155 146 -7 0 -18
7 -25 15 -7 8 -22 15 -34 15 -12 0 -26 4 -31 9 -14 13 -181 41 -244 41 -56 0
-222 -30 -231 -42 -3 -3 -18 -10 -33 -13 -15 -4 -27 -11 -27 -16 0 -5 -6 -9
-14 -9 -17 0 -74 -29 -94 -48 -8 -7 -27 -19 -43 -27 -16 -9 -29 -20 -29 -25 0
-6 -6 -10 -12 -10 -16 0 -198 -183 -198 -199 0 -6 -4 -11 -9 -11 -5 0 -13 -10
-16 -22 -4 -11 -18 -31 -31 -43 -13 -12 -24 -25 -24 -29 0 -4 -19 -27 -41 -51
-23 -25 -49 -55 -57 -67 -9 -13 -18 -25 -22 -28 -3 -3 -21 -25 -40 -50 -56
-72 -103 -110 -135 -110 -8 0 -15 -4 -15 -10 0 -5 -11 -10 -25 -10 -24 0 -75
-17 -142 -46 -17 -8 -38 -14 -47 -14 -9 0 -16 -4 -16 -10 0 -5 -7 -10 -16 -10
-17 0 -71 -27 -92 -47 -7 -7 -19 -13 -27 -13 -7 0 -15 -3 -17 -7 -5 -13 -86
-73 -97 -73 -6 0 -11 -4 -11 -8 0 -4 -15 -16 -32 -27 -18 -10 -37 -24 -41 -32
-4 -7 -15 -13 -22 -13 -8 0 -15 -4 -15 -9 0 -5 -8 -12 -17 -15 -10 -3 -31 -17
-47 -31 -16 -14 -32 -25 -36 -25 -4 0 -37 -29 -73 -65 -36 -36 -71 -65 -77
-65 -5 0 -10 -7 -10 -15 0 -8 -4 -15 -9 -15 -4 0 -38 -28 -74 -62 -36 -35
-105 -99 -152 -143 -48 -44 -107 -99 -130 -122 -24 -24 -47 -43 -51 -43 -5 0
-20 -14 -34 -32 -14 -17 -78 -85 -143 -151 -64 -66 -132 -138 -150 -160 -17
-23 -60 -70 -94 -105 -35 -34 -63 -65 -63 -68 0 -10 -110 -114 -120 -114 -6 0
-10 -3 -10 -8 0 -4 -10 -18 -23 -32 -33 -38 -70 -83 -92 -116 -42 -61 -276
-289 -318 -309 -23 -11 -48 -26 -55 -32 -7 -7 -20 -13 -28 -13 -8 0 -14 -4
-14 -10 0 -5 -5 -10 -12 -10 -6 0 -33 -14 -60 -31 -68 -44 -46 -75 -264 364
-8 16 -14 37 -14 48 0 10 -4 19 -9 19 -5 0 -12 18 -16 40 -4 22 -11 40 -16 40
-5 0 -9 8 -9 18 -1 18 -31 109 -42 128 -4 5 -10 34 -14 62 -3 29 -10 52 -14
52 -4 0 -10 15 -13 33 -6 43 -27 144 -38 187 -27 104 -44 500 -27 630 4 30 10
108 14 173 3 64 10 117 15 117 5 0 9 17 9 38 0 22 7 61 15 88 8 27 15 61 15
76 0 15 4 29 9 32 5 3 12 26 15 51 4 24 11 47 17 50 5 4 9 16 9 28 0 12 7 35
15 51 8 15 15 33 15 40 0 16 83 230 91 236 4 3 11 18 14 33 4 15 11 27 16 27
5 0 9 6 9 14 0 16 29 73 48 94 6 7 12 20 12 28 0 8 3 14 8 14 4 0 16 18 26 40
11 22 23 40 28 40 4 0 8 5 8 12 0 13 61 111 72 116 5 2 8 8 8 13 0 11 60 92
73 97 4 2 7 8 7 13 0 6 13 24 30 42 16 18 30 36 30 41 0 5 15 23 33 40 17 17
49 52 69 77 46 57 151 163 220 221 28 24 62 54 77 68 31 30 196 154 261 196
25 16 47 31 50 34 6 6 84 49 117 64 13 6 23 14 23 19 0 4 6 7 14 7 8 0 21 6
28 13 7 7 33 21 58 32 25 11 47 22 50 25 10 11 140 70 155 70 8 0 15 5 15 10
0 6 7 10 16 10 9 0 31 7 50 15 19 8 49 22 68 30 19 8 43 15 55 15 12 0 21 5
21 10 0 6 8 10 18 10 17 0 104 26 132 40 9 4 36 11 60 14 25 4 54 11 65 15 41
17 172 41 223 41 28 0 52 4 52 9 0 22 554 31 710 11 152 -19 216 -29 250 -40
19 -5 47 -10 63 -10 15 0 35 -4 45 -10 9 -5 40 -14 67 -20 109 -24 208 -52
215 -61 3 -4 21 -10 40 -14 19 -4 41 -11 50 -15 94 -49 124 -49 128 -3 3 29
-1 33 -44 52 -25 12 -55 21 -65 21 -11 0 -19 4 -19 9 0 5 -19 12 -42 16 -24 4
-45 10 -48 14 -7 9 -119 41 -220 61 -30 7 -62 14 -70 18 -32 12 -217 41 -263
42 -27 0 -56 4 -66 10 -17 9 -457 18 -571 12z m2593 -1244 c-15 -29 -31 -55
-34 -58 -3 -3 -8 -12 -12 -20 -12 -27 -32 -54 -52 -73 -19 -18 -20 -18 -28 12
-4 17 -12 31 -17 31 -6 0 -10 5 -10 11 0 6 -7 17 -15 25 -8 8 -11 22 -8 32 10
26 55 72 70 72 7 0 13 5 13 10 0 6 27 10 61 10 l60 0 -28 -52z m121 -30 c19
-37 21 -125 4 -141 -7 -7 -48 -13 -91 -15 l-77 -3 32 53 c18 29 35 55 38 58 3
3 14 22 25 43 24 45 48 47 69 5z m-1964 -1338 c0 -5 9 -10 20 -10 19 0 63 -20
115 -53 44 -27 92 -86 123 -149 17 -37 32 -72 32 -78 0 -5 5 -10 10 -10 22 0
9 -52 -20 -80 -17 -17 -33 -30 -36 -30 -3 0 -11 -6 -18 -12 -8 -7 -24 -20 -36
-28 -12 -8 -28 -19 -34 -25 -6 -5 -28 -23 -49 -38 -20 -16 -47 -38 -60 -51
-19 -18 -66 -50 -162 -109 -11 -7 -22 -14 -25 -17 -11 -11 -73 -40 -86 -40 -8
0 -14 -4 -14 -9 0 -5 -12 -12 -27 -16 -15 -3 -30 -10 -33 -13 -9 -12 -71 -42
-86 -42 -8 0 -14 -4 -14 -10 0 -5 -6 -10 -14 -10 -8 0 -21 -6 -28 -12 -17 -17
-85 -48 -103 -48 -8 0 -15 -4 -15 -10 0 -5 -16 -12 -35 -16 -19 -3 -38 -10
-41 -15 -3 -5 -14 -9 -24 -9 -10 0 -31 -7 -47 -15 -53 -28 -182 -84 -208 -91
-14 -3 -28 -10 -31 -15 -3 -5 -12 -9 -21 -9 -8 0 -29 -6 -46 -14 -18 -8 -54
-22 -82 -31 -27 -10 -63 -23 -80 -30 -16 -7 -46 -17 -65 -23 -19 -6 -57 -17
-85 -26 -27 -9 -62 -16 -77 -16 -16 0 -28 -4 -28 -8 0 -8 -82 -28 -155 -39
-22 -3 -44 -9 -50 -13 -5 -5 -36 -11 -67 -15 -32 -4 -58 -11 -58 -16 0 -5 -14
-9 -30 -9 -17 0 -47 -7 -67 -15 -19 -8 -46 -15 -59 -15 -13 0 -24 -4 -24 -9 0
-5 -18 -12 -40 -16 -22 -4 -42 -11 -46 -16 -3 -5 -13 -9 -22 -9 -9 0 -30 -7
-46 -15 -15 -8 -41 -15 -56 -15 -16 0 -31 -6 -33 -12 -4 -9 -6 -8 -6 2 -1 8 8
28 19 45 22 34 128 151 179 199 18 17 102 98 185 180 83 81 177 171 210 200
32 28 82 75 111 104 29 28 58 52 64 52 6 0 11 3 11 8 0 4 17 18 38 32 20 14
39 27 42 30 3 3 32 25 65 50 33 25 62 47 65 50 3 3 22 16 42 30 21 14 38 28
38 33 0 4 7 7 15 7 8 0 15 3 15 8 0 4 17 18 38 32 20 14 39 27 42 30 10 10 45
31 63 36 9 4 17 10 17 14 0 4 8 10 18 14 20 6 50 25 70 44 7 6 19 12 27 12 7
0 15 4 17 9 5 13 83 59 112 67 14 3 26 10 26 15 0 5 8 9 18 9 9 0 26 7 36 15
11 8 30 15 43 15 13 0 23 4 23 9 0 5 19 12 42 16 23 4 49 11 58 16 27 14 113
39 136 39 13 0 26 5 29 10 4 6 62 10 141 10 83 0 134 -4 134 -10z m310 -990
c0 -17 -4 -38 -9 -48 -5 -9 -17 -39 -27 -67 -9 -27 -27 -66 -38 -85 -12 -19
-30 -53 -41 -75 -11 -22 -23 -42 -26 -45 -4 -3 -9 -15 -13 -27 -4 -13 -12 -23
-17 -23 -5 0 -9 -7 -9 -15 0 -8 -4 -15 -9 -15 -5 0 -19 -16 -32 -36 -22 -37
-176 -191 -220 -221 -13 -10 -28 -22 -34 -29 -19 -22 -122 -82 -153 -89 -18
-3 -32 -11 -32 -16 0 -5 -8 -9 -19 -9 -10 0 -35 -7 -54 -15 -20 -8 -48 -15
-62 -15 -14 0 -25 -4 -25 -8 0 -10 -85 -31 -175 -42 -38 -5 -90 -14 -115 -19
-44 -10 -434 -13 -395 -4 11 3 22 8 25 12 9 11 71 41 86 41 8 0 14 4 14 9 0 5
14 12 30 16 17 4 30 11 30 16 0 5 6 9 14 9 15 0 77 30 86 42 3 3 18 10 33 13
15 4 27 11 27 16 0 5 6 9 14 9 15 0 77 30 86 42 3 3 18 10 33 13 15 4 30 11
33 16 3 5 14 9 25 9 10 0 19 4 19 9 0 5 10 13 23 17 12 4 24 9 27 13 3 3 34
21 70 39 94 48 155 84 158 93 2 5 8 9 13 9 15 0 232 140 255 166 13 13 27 24
31 24 5 0 20 11 35 25 15 14 30 25 33 25 8 0 85 60 112 88 12 12 25 22 28 22
4 0 39 31 78 70 40 38 75 70 80 70 4 0 7 -14 7 -30z m-1220 -1257 c6 -16 14
-37 19 -48 5 -11 17 -38 27 -60 9 -22 27 -48 38 -58 78 -66 106 -93 106 -104
0 -7 5 -13 10 -13 6 0 18 -18 27 -40 10 -22 21 -40 25 -40 4 0 17 -21 29 -47
12 -27 24 -50 28 -53 6 -5 25 -42 52 -105 7 -16 18 -37 24 -45 6 -8 19 -40 29
-70 10 -30 24 -69 32 -87 8 -17 14 -40 14 -51 0 -12 5 -24 10 -27 6 -3 10 -19
10 -34 0 -15 4 -31 9 -36 5 -6 12 -20 16 -33 l7 -24 -139 6 c-178 6 -221 13
-234 37 -17 32 -1 42 57 36 44 -4 58 -2 79 14 27 22 34 59 11 59 -8 0 -16 -5
-18 -12 -5 -14 -128 -13 -168 1 -14 5 -42 12 -62 16 -21 3 -38 10 -38 15 0 5
-10 10 -22 12 -15 2 -24 11 -26 26 -2 12 -7 22 -12 22 -4 0 -11 12 -15 27 -3
15 -10 30 -13 33 -8 6 -26 39 -86 155 -22 44 -46 86 -53 93 -7 7 -13 19 -13
27 0 7 -3 15 -8 17 -4 2 -15 21 -23 44 -14 35 -14 46 -3 85 8 24 14 88 14 142
l0 97 31 0 c38 0 170 30 184 42 17 15 36 8 45 -19z m-944 -34 c6 -5 77 -12
158 -15 143 -7 147 -8 152 -31 4 -12 10 -23 15 -23 5 0 9 -10 9 -23 0 -13 7
-32 15 -43 8 -10 15 -27 15 -36 0 -10 5 -18 10 -18 6 0 10 -6 10 -13 0 -21 34
-43 75 -50 48 -8 98 -59 140 -142 16 -33 53 -99 82 -147 28 -47 60 -109 70
-137 10 -28 21 -51 25 -51 5 0 8 -9 8 -21 0 -19 -35 -58 -53 -59 -4 0 -18 -10
-30 -22 -24 -25 -47 -34 -47 -18 0 6 -8 10 -19 10 -20 0 -99 22 -164 46 -20 8
-49 14 -62 14 -14 0 -25 5 -25 10 0 6 -8 10 -17 10 -10 0 -31 7 -47 15 -15 8
-34 15 -41 15 -7 0 -26 7 -41 15 -16 8 -37 15 -46 15 -10 0 -18 5 -18 10 0 6
-6 10 -14 10 -8 0 -44 14 -79 30 -36 17 -70 30 -75 30 -6 0 -12 3 -14 8 -1 4
-39 26 -83 48 -115 60 -149 78 -155 85 -3 3 -12 8 -20 12 -17 8 -53 30 -60 37
-3 3 -22 16 -42 30 -21 14 -38 28 -38 33 0 4 -6 7 -13 7 -8 0 -23 10 -35 23
l-22 23 38 40 c21 21 54 51 73 66 20 14 57 47 83 72 26 25 50 46 54 46 4 0 30
24 57 53 l50 53 55 -4 c30 -3 60 -8 66 -13z"/>
<path d="M6102 7884 c-18 -19 1 -323 21 -336 9 -6 155 -5 174 1 14 5 31 35 26
47 -5 13 -20 15 -82 12 l-76 -3 -7 105 c-4 58 -9 119 -13 136 -7 41 -26 57
-43 38z"/>
<path d="M6522 7884 c-7 -7 -17 -63 -23 -124 -11 -104 -10 -112 11 -155 12
-25 28 -45 35 -45 7 0 15 -5 17 -11 4 -13 87 -24 120 -16 13 4 37 19 54 34 36
34 53 90 61 210 l6 83 -27 0 c-14 0 -26 -3 -27 -7 0 -5 -4 -44 -9 -88 -11
-106 -19 -136 -42 -158 -23 -22 -101 -25 -121 -5 -29 29 -38 71 -27 127 21
111 6 192 -28 155z"/>
<path d="M5727 7859 c-38 -9 -76 -40 -110 -89 -22 -32 -24 -152 -2 -174 8 -8
15 -17 15 -20 0 -12 35 -46 46 -46 7 0 14 -6 17 -12 6 -21 160 -17 181 5 10 9
21 17 26 17 15 0 31 37 24 54 -8 22 -22 20 -60 -9 -25 -20 -44 -25 -87 -25
-45 0 -58 5 -87 30 -31 28 -34 36 -35 89 0 52 3 61 34 91 33 33 37 34 107 33
53 -1 74 3 78 13 6 16 -19 44 -42 45 -9 1 -28 2 -42 4 -14 1 -42 -2 -63 -6z"/>
<path d="M7054 7812 c-6 -4 -19 -34 -29 -67 -10 -33 -24 -79 -31 -103 -8 -23
-14 -51 -14 -62 0 -10 -4 -22 -10 -25 -5 -3 -10 -21 -10 -38 0 -36 23 -51 97
-63 108 -17 146 19 141 137 -2 51 1 74 10 76 15 6 16 42 0 75 -14 30 -56 58
-86 58 -12 0 -24 5 -27 10 -7 12 -25 13 -41 2z"/>
<path d="M5018 7613 c-27 -14 -48 -32 -48 -39 0 -8 -4 -14 -9 -14 -11 0 -41
-79 -41 -107 0 -28 33 -103 56 -128 74 -78 211 -71 277 14 34 43 35 71 5 71
-14 0 -31 -12 -43 -30 -28 -42 -92 -66 -138 -51 -85 28 -117 103 -78 184 22
45 59 67 117 67 38 0 57 13 52 36 -5 31 -91 29 -150 -3z"/>
<path d="M4650 7382 c-14 -9 -26 -20 -28 -24 -2 -5 -9 -8 -16 -8 -17 0 -88
-72 -79 -79 9 -7 30 -39 40 -61 4 -8 9 -17 13 -20 3 -3 21 -27 40 -55 19 -27
37 -52 40 -55 4 -3 15 -20 25 -37 13 -22 27 -33 42 -33 13 0 23 5 23 10 0 6 7
10 15 10 8 0 15 3 15 8 1 4 25 23 55 42 40 25 55 41 55 58 0 17 -6 22 -25 22
-14 0 -25 -4 -25 -10 0 -5 -7 -10 -15 -10 -7 0 -18 -6 -22 -13 -9 -14 -58 -47
-70 -47 -8 0 -57 70 -51 74 22 15 95 73 100 80 11 16 -3 36 -27 36 -13 0 -25
-3 -27 -7 -5 -13 -66 -53 -80 -53 -17 0 -48 36 -48 55 0 8 9 19 21 25 22 13
51 35 81 63 39 37 -5 61 -52 29z"/>
<path d="M4318 7133 c-10 -2 -18 -8 -18 -13 0 -4 -9 -10 -20 -13 -11 -3 -23
-13 -27 -24 -3 -10 -10 -21 -15 -24 -13 -8 -21 -74 -14 -103 4 -16 16 -28 31
-32 14 -3 25 -10 25 -15 0 -5 11 -8 25 -7 14 1 25 6 25 9 0 4 14 10 30 14 17
4 30 10 30 13 0 13 82 43 101 37 27 -9 25 -63 -4 -96 -19 -23 -97 -57 -97 -42
0 2 -7 -2 -15 -11 -18 -18 -19 -23 -3 -40 9 -9 21 -11 38 -5 14 4 36 10 50 13
55 12 110 87 110 149 0 38 -43 87 -75 87 -21 0 -107 -30 -115 -40 -11 -13 -71
-32 -85 -26 -32 12 -11 96 24 96 6 0 11 5 11 10 0 6 10 10 23 10 25 1 57 22
57 38 0 19 -47 27 -92 15z"/>
<path d="M3978 6764 c-10 -3 -18 -10 -18 -15 0 -5 -4 -9 -10 -9 -15 0 -50 -33
-50 -46 0 -7 -5 -14 -11 -16 -19 -6 -14 -132 7 -167 10 -17 22 -31 26 -31 4 0
8 -6 8 -12 1 -24 73 -48 143 -48 38 0 67 4 67 10 0 6 6 10 13 10 14 0 47 35
47 49 0 5 5 11 10 13 15 5 23 70 16 121 -4 27 -17 56 -31 72 -14 14 -25 29
-25 33 0 24 -143 50 -192 36z m132 -64 c0 -5 6 -10 13 -10 39 -1 65 -112 38
-163 -21 -39 -70 -61 -122 -54 -24 3 -45 11 -47 16 -2 6 -9 11 -16 11 -20 0
-46 56 -46 102 0 33 7 51 28 76 25 29 32 32 90 32 35 0 62 -4 62 -10z"/>
<path d="M3707 6352 c-9 -10 -17 -24 -17 -30 0 -7 -4 -12 -8 -12 -4 0 -16 -22
-27 -50 -11 -27 -23 -50 -27 -50 -13 0 -9 -20 6 -35 8 -8 54 -35 102 -61 49
-25 93 -50 98 -55 6 -5 18 -9 28 -9 10 0 18 -4 18 -9 0 -14 44 -21 52 -8 13
20 9 37 -9 44 -10 4 -20 9 -23 12 -3 3 -22 14 -43 24 -32 15 -37 21 -31 40 4
12 9 24 13 27 3 3 15 22 26 44 19 37 19 38 0 52 -24 18 -34 9 -70 -61 -26 -49
-45 -69 -45 -47 0 4 -13 13 -29 19 -23 8 -29 15 -24 32 3 11 9 21 14 21 5 0 9
7 9 15 0 9 7 27 16 40 17 26 16 66 -2 72 -6 2 -18 -5 -27 -15z"/>
<path d="M3522 5928 c-22 -22 -12 -35 46 -53 31 -11 61 -23 67 -27 5 -4 18 -8
30 -8 12 0 26 -5 33 -12 14 -14 -16 -32 -74 -42 -21 -5 -43 -11 -49 -16 -5 -4
-23 -10 -40 -14 -58 -14 -85 -30 -85 -53 0 -16 8 -23 30 -28 17 -4 30 -11 30
-16 0 -5 13 -9 29 -9 17 0 32 -4 35 -9 3 -5 23 -12 43 -16 21 -4 43 -10 48
-15 6 -4 31 -11 56 -15 88 -13 71 38 -20 62 -28 7 -67 19 -87 28 -36 15 -37
16 -18 29 10 7 33 16 49 19 64 13 125 32 125 39 0 5 10 8 23 8 25 1 57 22 57
38 0 11 -78 52 -98 52 -7 0 -20 4 -30 9 -15 8 -176 61 -185 61 -2 0 -8 -5 -15
-12z"/>
<path d="M3387 5504 c-17 -17 -6 -42 21 -47 15 -3 71 -15 126 -26 157 -32 203
-31 180 7 -11 16 -52 28 -121 33 -18 2 -33 6 -33 10 0 3 -24 9 -52 13 -29 3
-67 9 -83 12 -17 3 -33 2 -38 -2z"/>
</g>
</svg>
